<?xml version="1.0" encoding="utf-8"?>
<!-- Generator: Adobe Illustrator 24.0.2, SVG Export Plug-In . SVG Version: 6.00 Build 0)  -->
<svg version="1.1" id="Layer_1" xmlns="http://www.w3.org/2000/svg" xmlns:xlink="http://www.w3.org/1999/xlink" x="0px" y="0px"
	 viewBox="0 0 512 254" style="enable-background:new 0 0 512 254;" xml:space="preserve">
<style type="text/css">
	.st0{fill:url(#SVGID_1_);}
	.st1{fill:#FFFFFF;}
	.st2{fill:url(#SVGID_2_);}
	.st3{fill:url(#SVGID_3_);}
	.st4{fill:url(#SVGID_4_);}
	.st5{fill:url(#SVGID_5_);}
	.st6{fill:url(#SVGID_6_);}
	.st7{fill:url(#SVGID_7_);}
	.st8{fill:url(#SVGID_8_);}
	.st9{fill:url(#SVGID_9_);}
	.st10{fill:url(#SVGID_10_);}
	.st11{fill:url(#SVGID_11_);}
	.st12{fill:url(#SVGID_12_);}
	.st13{fill:url(#SVGID_13_);}
	.st14{stroke:#000000;stroke-width:6;stroke-miterlimit:10;}
	.st15{fill:url(#SVGID_14_);}
	.st16{fill:url(#SVGID_15_);}
	.st17{fill:url(#SVGID_16_);}
	.st18{fill:url(#SVGID_17_);}
	.st19{fill:url(#SVGID_18_);}
	.st20{fill:url(#SVGID_19_);}
	.st21{fill:url(#SVGID_20_);}
	.st22{fill:url(#SVGID_21_);}
	.st23{fill:url(#SVGID_22_);}
	.st24{fill:url(#SVGID_23_);}
	.st25{fill:url(#SVGID_24_);}
	.st26{fill:url(#SVGID_25_);}
	.st27{fill:#FFFFFF;stroke:#FFFFFF;stroke-width:3;stroke-miterlimit:10;}
	.st28{fill:url(#SVGID_26_);}
	.st29{fill:url(#SVGID_27_);}
	.st30{fill:url(#SVGID_28_);}
	.st31{fill:url(#SVGID_29_);}
	.st32{fill:url(#SVGID_30_);}
	.st33{fill:url(#SVGID_31_);}
	.st34{fill:url(#SVGID_32_);}
	.st35{fill:url(#SVGID_33_);}
	.st36{fill:url(#SVGID_34_);}
	.st37{fill:url(#SVGID_35_);}
	.st38{fill:url(#SVGID_36_);}
	.st39{fill:url(#SVGID_37_);}
	.st40{fill:url(#SVGID_38_);}
	.st41{fill:url(#SVGID_39_);}
	.st42{fill:url(#SVGID_40_);}
	.st43{fill:url(#SVGID_41_);}
	.st44{fill:url(#SVGID_42_);}
	.st45{fill:url(#SVGID_43_);}
	.st46{fill:url(#SVGID_44_);}
	.st47{fill:url(#SVGID_45_);}
	.st48{fill:url(#SVGID_46_);}
	.st49{fill:url(#SVGID_47_);}
	.st50{fill:url(#SVGID_48_);}
	.st51{fill:url(#SVGID_49_);}
	.st52{fill:#FFFFFF;stroke:#FFFFFF;stroke-width:6;stroke-miterlimit:10;}
	.st53{fill:url(#SVGID_50_);}
	.st54{fill:url(#SVGID_51_);}
	.st55{fill:url(#SVGID_52_);}
	.st56{fill:url(#SVGID_53_);}
	.st57{fill:url(#SVGID_54_);}
	.st58{fill:url(#SVGID_55_);}
	.st59{fill:url(#SVGID_56_);}
	.st60{fill:url(#SVGID_57_);}
	.st61{fill:url(#SVGID_58_);}
	.st62{fill:url(#SVGID_59_);}
	.st63{fill:url(#SVGID_60_);}
	.st64{fill:url(#SVGID_61_);}
	.st65{stroke:#000000;stroke-width:2;stroke-miterlimit:10;}
	.st66{fill:url(#SVGID_62_);}
	.st67{fill:url(#SVGID_63_);}
	.st68{fill:url(#SVGID_64_);}
	.st69{fill:url(#SVGID_65_);}
	.st70{fill:url(#SVGID_66_);}
	.st71{fill:url(#SVGID_67_);}
	.st72{fill:url(#SVGID_68_);}
	.st73{fill:url(#SVGID_69_);}
	.st74{fill:url(#SVGID_70_);}
	.st75{fill:url(#SVGID_71_);}
	.st76{fill:url(#SVGID_72_);}
	.st77{fill:url(#SVGID_73_);}
	.st78{stroke:#000000;stroke-width:3;stroke-miterlimit:10;}
	.st79{fill:url(#SVGID_74_);}
	.st80{fill:url(#SVGID_75_);}
	.st81{fill:url(#SVGID_76_);}
	.st82{fill:url(#SVGID_77_);}
	.st83{fill:url(#SVGID_78_);}
	.st84{fill:url(#SVGID_79_);}
	.st85{fill:url(#SVGID_80_);}
	.st86{fill:url(#SVGID_81_);}
	.st87{fill:url(#SVGID_82_);}
	.st88{fill:url(#SVGID_83_);}
	.st89{fill:url(#SVGID_84_);}
	.st90{fill:url(#SVGID_85_);}
</style>
<g>
	<path class="st1" d="M50,164.4V44.5h31.3v119.8H50z"/>
	<path class="st1" d="M213.5,84l0.2,1.7h-31.3L182,84C179.4,71.1,171.6,65,158.9,65c-14.9,0-26.2,12.5-26.2,38.4
		c0,30.2,12.5,40.5,26.4,40.5c12.2,0,20-7.5,22.6-20.7l0.3-1.7h31.3l-0.2,1.7c-3,28.8-25,43.6-55.1,43.6c-32.1,0-58-20.8-58-61.5
		c0-41.7,26.7-63.2,59.2-63.2C193.5,42.1,211.1,60.3,213.5,84z"/>
</g>
<g>
	<g>
		<path class="st1" d="M424.3,71.5V167H393V71.5h-38.9V47.2h109.1v24.3H424.3z"/>
	</g>
</g>
<g>
	<g>
		<path class="st1" d="M90.2,191.9H80c-0.5-4.1-2.8-6.7-7-6.7c-3.1,0-5.4,1.5-5.4,4.7c0,3.3,2.2,5.1,9.4,6.8c9.7,2.3,14,6.9,14,13.9
			c0,8.6-8,13.2-16.8,13.2c-10.8,0-18-4.6-18.8-14.2h10.1c0.9,4.5,4.4,6.7,8.5,6.7c3.7,0,6.5-1.9,6.5-4.9c0-3.1-2-5.2-8.1-6.6
			c-9.5-2.4-15.2-5.5-15.2-14c0-8.3,7.6-13.1,16.2-13.1C84.3,177.8,89.2,183.9,90.2,191.9z"/>
		<path class="st1" d="M145.1,200.8c0,14-8.5,23-22.2,23c-13.7,0-22.2-9-22.2-23c0-14,8.5-23,22.2-23
			C136.6,177.8,145.1,186.7,145.1,200.8z M134.7,200.8c0-9.9-4.5-15.6-11.8-15.6c-7.4,0-11.8,5.6-11.8,15.6
			c0,9.9,4.5,15.6,11.8,15.6C130.2,216.3,134.7,210.6,134.7,200.8z"/>
		<path class="st1" d="M190.4,222.8h-32.8v-44.2h10.1v35.7h22.7V222.8z"/>
		<path class="st1" d="M239.1,204.2c0,2,0,3.3-0.2,5.6c-0.5,7.4-5.7,13.9-18.6,13.9s-18.1-6.5-18.7-13.9c-0.1-2.3-0.1-3.6-0.1-5.6
			v-25.6h10v27c0,1.2,0,2,0.1,2.9c0.4,4.8,3.3,7.7,8.8,7.7c5.5,0,8.4-2.9,8.7-7.7c0.1-0.9,0.1-1.7,0.1-2.9v-27h10V204.2z"/>
		<path class="st1" d="M273.1,186.5v36.4h-10v-36.4h-14.7v-7.8h39.4v7.8H273.1z"/>
		<path class="st1" d="M297.9,222.8v-44.2H308v44.2H297.9z"/>
		<path class="st1" d="M364.6,200.8c0,14-8.5,23-22.2,23c-13.7,0-22.2-9-22.2-23c0-14,8.5-23,22.2-23
			C356.1,177.8,364.6,186.7,364.6,200.8z M354.3,200.8c0-9.9-4.5-15.6-11.8-15.6c-7.4,0-11.8,5.6-11.8,15.6
			c0,9.9,4.5,15.6,11.8,15.6C349.8,216.3,354.3,210.6,354.3,200.8z"/>
		<path class="st1" d="M404.1,222.8l-17.3-31.6c0.3,4.7,0.4,9.2,0.4,12.4v19.2h-10.1v-44.2H390l17.8,32.5c-0.3-4.6-0.3-9.6-0.3-12.9
			v-19.7h10v44.2H404.1z"/>
		<path class="st1" d="M463.8,191.9h-10.1c-0.5-4.1-2.8-6.7-7-6.7c-3.1,0-5.4,1.5-5.4,4.7c0,3.3,2.2,5.1,9.3,6.8
			c9.7,2.3,14,6.9,14,13.9c0,8.6-8,13.2-16.8,13.2c-10.8,0-18-4.6-18.8-14.2H439c0.9,4.5,4.4,6.7,8.5,6.7c3.7,0,6.5-1.9,6.5-4.9
			c0-3.1-2-5.2-8.1-6.6c-9.5-2.4-15.2-5.5-15.2-14c0-8.3,7.6-13.1,16.2-13.1C457.9,177.8,462.8,183.9,463.8,191.9z"/>
	</g>
</g>
<g>
	<g>
		<g>
			
				<radialGradient id="SVGID_1_" cx="-756.1866" cy="59.2833" r="2.2711" gradientTransform="matrix(-1 0 0 0.9767 -485.9352 1.7433)" gradientUnits="userSpaceOnUse">
				<stop  offset="0" style="stop-color:#FF0000"/>
				<stop  offset="1" style="stop-color:#AB272D"/>
			</radialGradient>
			<path class="st0" d="M270.3,61.9c-1.3,0-2.3-1-2.3-2.2c0-1.2,1-2.2,2.3-2.2c1.3,0,2.3,1,2.3,2.2
				C272.5,60.9,271.5,61.9,270.3,61.9z"/>
			
				<radialGradient id="SVGID_2_" cx="-806.0728" cy="88.4104" r="24.6587" gradientTransform="matrix(-1 0 0 0.9767 -485.9352 1.7433)" gradientUnits="userSpaceOnUse">
				<stop  offset="0" style="stop-color:#FF0000"/>
				<stop  offset="1" style="stop-color:#AB272D"/>
			</radialGradient>
			<path class="st2" d="M334.7,100.2c-0.5,2.9-6.4,10.6-11.9,12.5c-2.2,0.8-3.4,0.2-4.1-0.3c0.1-1.2,2.3-4.1,3.6-5.9
				c2.9-3.9,5.3-7.2,4.4-10.2c-0.3-0.9-1.1-2.2-3.1-2.8c-3-1-5-0.8-6.2-0.8c-1.2,0.1-1.5,0.1-3.8-3.3c-3.1-4.7-8.8-5.9-13-6.9
				c-1.5-0.3-3.8-0.8-4.3-1.3c0.1-1.2,1.4-2.9,3.2-4.1c1.9-1.2,4.8-2.1,7.2-1c4.8,2.1,9.1,0.6,10.6-1.9c1.1-1.8,1-4.4-1.7-6.3
				c-1.8-1.3-2.9-3.4-3.1-4.3c0.2,0,0.6,0,1.2,0.1c3.4,0.7,7.1,0.5,10.2-0.5c9.8,7.3,17,17.9,19.8,30c-0.4,0.1-0.9,0.3-1.3,0.4
				C339.6,94.4,335.6,95.5,334.7,100.2z"/>
			
				<radialGradient id="SVGID_3_" cx="-729.5383" cy="84.9799" r="2.2711" gradientTransform="matrix(-1 0 0 0.9767 -485.9352 1.7433)" gradientUnits="userSpaceOnUse">
				<stop  offset="0" style="stop-color:#FF0000"/>
				<stop  offset="1" style="stop-color:#AB272D"/>
			</radialGradient>
			<path class="st3" d="M245.9,84.7c0,1.2-1,2.2-2.3,2.2c-1.3,0-2.3-1-2.3-2.2c0-1.2,1-2.2,2.3-2.2
				C244.9,82.5,245.9,83.5,245.9,84.7z"/>
			
				<radialGradient id="SVGID_4_" cx="-726.6355" cy="112.8654" r="2.2711" gradientTransform="matrix(-1 0 0 0.9767 -485.9352 1.7433)" gradientUnits="userSpaceOnUse">
				<stop  offset="0" style="stop-color:#FF0000"/>
				<stop  offset="1" style="stop-color:#AB272D"/>
			</radialGradient>
			<path class="st4" d="M240.7,109.8c1.3,0,2.3,1,2.3,2.2c0,1.2-1,2.2-2.3,2.2c-1.3,0-2.3-1-2.3-2.2
				C238.4,110.8,239.4,109.8,240.7,109.8z"/>
			
				<radialGradient id="SVGID_5_" cx="-775.9676" cy="105.2027" r="56.0185" gradientTransform="matrix(-1 0 0 0.9767 -485.9352 1.7433)" gradientUnits="userSpaceOnUse">
				<stop  offset="0" style="stop-color:#FF0000"/>
				<stop  offset="1" style="stop-color:#AB272D"/>
			</radialGradient>
			<path class="st5" d="M284.6,160c-0.1-0.3-0.1-0.6-0.1-1c0-2.7,2.3-5,5.1-5c2.1,0,3.8,1.2,4.6,2.9c11.4-0.5,21.8-4.6,30.3-11
				c1.1-1.2,2.6-3.4,1.4-6.1c-1.3-3-3.3-4.4-5.3-5.8c-1.2-0.8-2.5-1.7-3.5-2.9c-1.3-1.4-2-3.3-2.7-5.2c-0.4-1.1-1.3-3.5-1.8-3.6
				c-0.6,0.2-2.1,2-3.1,3.2c-2.3,2.8-5.2,6.4-9.6,7.9c-1.8,0.6-3.6,0.8-5.2,0.9c-1.3,0.1-2.7,0.2-3.3,0.6c-1.1,0.6-2.5,0.3-3.1-0.8
				c-0.6-1.1-0.3-2.4,0.8-3.1c1.6-0.9,3.4-1,5.3-1.2c1.4-0.1,2.8-0.2,4-0.7c3.2-1.1,5.5-4,7.6-6.5c2.2-2.7,4.1-4.9,6.8-4.9
				c3.6,0.1,4.9,3.6,6,6.5c0.6,1.5,1.1,3,1.9,3.8c0.7,0.8,1.6,1.4,2.7,2.2c2.3,1.6,5.1,3.5,6.9,7.7c0.3,0.8,0.5,1.5,0.7,2.2
				c9-9.4,14.5-21.9,14.5-35.6c0-2.4-0.2-4.8-0.5-7.1c-0.3,0.1-0.6,0.2-0.9,0.3c-3.1,0.9-4.3,1.4-4.6,3.1
				c-0.8,4.5-7.8,13.5-14.9,15.9c-1.3,0.4-2.5,0.6-3.5,0.6c-2.4,0-4.1-1-5.3-2c-3.4-2.9-0.1-7.4,3.1-11.7c1.3-1.7,3.6-4.9,3.7-6.1
				c0,0-0.1,0-0.2-0.1c-2.2-0.7-3.4-0.6-4.5-0.6c-3.2,0.2-4.7-0.5-7.9-5.4c-2.1-3.1-6.3-4.1-10.1-4.9c-3.7-0.8-7.9-1.7-7.9-5.6
				c0-2.8,2-5.9,5.3-7.9c3.8-2.4,8.1-2.9,11.6-1.3c2.3,1,3.8,0.5,4.2,0.3c0.5-0.2,0.6-0.4,0.6-0.4c0,0-0.1-0.2-0.5-0.5
				c-2.8-2.1-6-6.7-4.5-9.9c0.5-1.2,2.1-3,6.3-2.2c1.2,0.2,2.5,0.3,3.8,0.3c-7.3-4.2-15.7-6.7-24.6-7.1c-0.9,1.5-2.5,2.5-4.4,2.5
				c-2.8,0-5.1-2.2-5.1-5c0-0.3,0-0.7,0.1-1c-19.1,2.5-35.3,14.1-43.6,30.2c0.8-0.4,1.7-0.6,2.6-0.6c3.4,0,6.2,2.7,6.2,6.1
				c0,2.6-1.6,4.7-3.9,5.6c0,0.2,0.1,0.3,0.1,0.5v8.3h60.2c1.3,0,2.3,1,2.3,2.2c0,1.2-1,2.2-2.3,2.2h-62.5c-1.3,0-2.3-1-2.3-2.2
				V90.9c0-0.1,0-0.3,0-0.4c-1.7-0.6-3.1-2-3.7-3.6c-1.9,5.6-2.9,11.5-2.9,17.7c0,1.7,0.1,3.3,0.2,5c1-2.1,3.1-3.5,5.6-3.5
				c2.5,0,4.7,1.5,5.7,3.6h61c1.3,0,2.3,1,2.3,2.2c0,1.2-1,2.2-2.3,2.2h-60.9c-0.9,2.4-3.2,4.1-5.9,4.1c-1.9,0-3.5-0.8-4.7-2.1
				C241,139.1,260.4,156.9,284.6,160z M300.7,58.4c0-1.2,1-2.2,2.3-2.2c1.3,0,2.3,1,2.3,2.2v7.3c0,1.2-1,2.2-2.3,2.2
				c-1.3,0-2.3-1-2.3-2.2V58.4z M294.2,58.4c0-1.2,1-2.2,2.3-2.2c1.3,0,2.3,1,2.3,2.2V69c0,1.2-1,2.2-2.3,2.2c-1.3,0-2.3-1-2.3-2.2
				V58.4z M289.7,77c-1.3,0-2.3-1-2.3-2.2V58.4c0-1.2,1-2.2,2.3-2.2s2.3,1,2.3,2.2v16.4C292,76,291,77,289.7,77z M300.1,91.1
				c0,1.2-1,2.2-2.3,2.2h-27.5c-1.3,0-2.3-1-2.3-2.2V65.3c-2.3-0.9-4-3.1-4-5.7c0-3.4,2.8-6.1,6.2-6.1s6.2,2.7,6.2,6.1
				c0,2.5-1.6,4.7-3.8,5.6v23.6h25.2C299.1,88.9,300.1,89.9,300.1,91.1z M304.7,142h-10.8c-1.3,0-2.3-1-2.3-2.2c0-1.2,1-2.2,2.3-2.2
				h10.8c1.3,0,2.3,1,2.3,2.2C307,141,306,142,304.7,142z M292.2,151.7c0-1.2,1-2.2,2.3-2.2h9.1c1.3,0,2.3,1,2.3,2.2
				c0,1.2-1,2.2-2.3,2.2h-9.1C293.3,153.9,292.2,152.9,292.2,151.7z M286.2,145.7c0-1.2,1-2.2,2.3-2.2h9.1c1.3,0,2.3,1,2.3,2.2
				c0,1.2-1,2.2-2.3,2.2h-9.1C287.2,148,286.2,147,286.2,145.7z M253.2,142.8c-3.4,0-6.2-2.7-6.2-6.1c0-3.4,2.8-6.1,6.2-6.1
				c2.8,0,5.1,1.8,5.9,4.2h5.9v-12.3c0-1.2,1-2.2,2.3-2.2h31.1c1.3,0,2.3,1,2.3,2.2c0,1.2-1,2.2-2.3,2.2h-28.8v12.3
				c0,1.2-1,2.2-2.3,2.2h-8.5C257.8,141.4,255.7,142.8,253.2,142.8z"/>
			
				<radialGradient id="SVGID_6_" cx="-739.1348" cy="138.2448" r="2.2711" gradientTransform="matrix(-1 0 0 0.9767 -485.9352 1.7433)" gradientUnits="userSpaceOnUse">
				<stop  offset="0" style="stop-color:#FF0000"/>
				<stop  offset="1" style="stop-color:#AB272D"/>
			</radialGradient>
			<path class="st6" d="M253.2,134.6c1.3,0,2.3,1,2.3,2.2c0,1.2-1,2.2-2.3,2.2c-1.3,0-2.3-1-2.3-2.2
				C250.9,135.6,251.9,134.6,253.2,134.6z"/>
		</g>
		<g>
			
				<radialGradient id="SVGID_7_" cx="-237.9676" cy="104.1789" r="56.0185" gradientTransform="matrix(-1 0 0 0.9767 52.0648 2.7433)" gradientUnits="userSpaceOnUse">
				<stop  offset="0" style="stop-color:#FF0000"/>
				<stop  offset="1" style="stop-color:#C1272D"/>
			</radialGradient>
			<path class="st7" d="M270.3,61.9c-1.3,0-2.3-1-2.3-2.2c0-1.2,1-2.2,2.3-2.2c1.3,0,2.3,1,2.3,2.2
				C272.5,60.9,271.5,61.9,270.3,61.9z"/>
			
				<radialGradient id="SVGID_8_" cx="-237.9676" cy="104.1789" r="56.0185" gradientTransform="matrix(-1 0 0 0.9767 52.0648 2.7433)" gradientUnits="userSpaceOnUse">
				<stop  offset="0" style="stop-color:#FF0000"/>
				<stop  offset="1" style="stop-color:#C1272D"/>
			</radialGradient>
			<path class="st8" d="M334.7,100.2c-0.5,2.9-6.4,10.6-11.9,12.5c-2.2,0.8-3.4,0.2-4.1-0.3c0.1-1.2,2.3-4.1,3.6-5.9
				c2.9-3.9,5.3-7.2,4.4-10.2c-0.3-0.9-1.1-2.2-3.1-2.8c-3-1-5-0.8-6.2-0.8c-1.2,0.1-1.5,0.1-3.8-3.3c-3.1-4.7-8.8-5.9-13-6.9
				c-1.5-0.3-3.8-0.8-4.3-1.3c0.1-1.2,1.4-2.9,3.2-4.1c1.9-1.2,4.8-2.1,7.2-1c4.8,2.1,9.1,0.6,10.6-1.9c1.1-1.8,1-4.4-1.7-6.3
				c-1.8-1.3-2.9-3.4-3.1-4.3c0.2,0,0.6,0,1.2,0.1c3.4,0.7,7.1,0.5,10.2-0.5c9.8,7.3,17,17.9,19.8,30c-0.4,0.1-0.9,0.3-1.3,0.4
				C339.6,94.4,335.6,95.5,334.7,100.2z"/>
			
				<radialGradient id="SVGID_9_" cx="-237.9676" cy="104.1789" r="56.0185" gradientTransform="matrix(-1 0 0 0.9767 52.0648 2.7433)" gradientUnits="userSpaceOnUse">
				<stop  offset="0" style="stop-color:#FF0000"/>
				<stop  offset="1" style="stop-color:#C1272D"/>
			</radialGradient>
			<path class="st9" d="M245.9,84.7c0,1.2-1,2.2-2.3,2.2c-1.3,0-2.3-1-2.3-2.2c0-1.2,1-2.2,2.3-2.2
				C244.9,82.5,245.9,83.5,245.9,84.7z"/>
			
				<radialGradient id="SVGID_10_" cx="-237.9676" cy="104.1789" r="56.0185" gradientTransform="matrix(-1 0 0 0.9767 52.0648 2.7433)" gradientUnits="userSpaceOnUse">
				<stop  offset="0" style="stop-color:#FF0000"/>
				<stop  offset="1" style="stop-color:#C1272D"/>
			</radialGradient>
			<path class="st10" d="M240.7,109.8c1.3,0,2.3,1,2.3,2.2c0,1.2-1,2.2-2.3,2.2c-1.3,0-2.3-1-2.3-2.2
				C238.4,110.8,239.4,109.8,240.7,109.8z"/>
			
				<radialGradient id="SVGID_11_" cx="-237.9676" cy="104.1789" r="56.0185" gradientTransform="matrix(-1 0 0 0.9767 52.0648 2.7433)" gradientUnits="userSpaceOnUse">
				<stop  offset="0" style="stop-color:#FF0000"/>
				<stop  offset="1" style="stop-color:#C1272D"/>
			</radialGradient>
			<path class="st11" d="M284.6,160c-0.1-0.3-0.1-0.6-0.1-1c0-2.7,2.3-5,5.1-5c2.1,0,3.8,1.2,4.6,2.9c11.4-0.5,21.8-4.6,30.3-11
				c1.1-1.2,2.6-3.4,1.4-6.1c-1.3-3-3.3-4.4-5.3-5.8c-1.2-0.8-2.5-1.7-3.5-2.9c-1.3-1.4-2-3.3-2.7-5.2c-0.4-1.1-1.3-3.5-1.8-3.6
				c-0.6,0.2-2.1,2-3.1,3.2c-2.3,2.8-5.2,6.4-9.6,7.9c-1.8,0.6-3.6,0.8-5.2,0.9c-1.3,0.1-2.7,0.2-3.3,0.6c-1.1,0.6-2.5,0.3-3.1-0.8
				c-0.6-1.1-0.3-2.4,0.8-3.1c1.6-0.9,3.4-1,5.3-1.2c1.4-0.1,2.8-0.2,4-0.7c3.2-1.1,5.5-4,7.6-6.5c2.2-2.7,4.1-4.9,6.8-4.9
				c3.6,0.1,4.9,3.6,6,6.5c0.6,1.5,1.1,3,1.9,3.8c0.7,0.8,1.6,1.4,2.7,2.2c2.3,1.6,5.1,3.5,6.9,7.7c0.3,0.8,0.5,1.5,0.7,2.2
				c9-9.4,14.5-21.9,14.5-35.6c0-2.4-0.2-4.8-0.5-7.1c-0.3,0.1-0.6,0.2-0.9,0.3c-3.1,0.9-4.3,1.4-4.6,3.1
				c-0.8,4.5-7.8,13.5-14.9,15.9c-1.3,0.4-2.5,0.6-3.5,0.6c-2.4,0-4.1-1-5.3-2c-3.4-2.9-0.1-7.4,3.1-11.7c1.3-1.7,3.6-4.9,3.7-6.1
				c0,0-0.1,0-0.2-0.1c-2.2-0.7-3.4-0.6-4.5-0.6c-3.2,0.2-4.7-0.5-7.9-5.4c-2.1-3.1-6.3-4.1-10.1-4.9c-3.7-0.8-7.9-1.7-7.9-5.6
				c0-2.8,2-5.9,5.3-7.9c3.8-2.4,8.1-2.9,11.6-1.3c2.3,1,3.8,0.5,4.2,0.3c0.5-0.2,0.6-0.4,0.6-0.4c0,0-0.1-0.2-0.5-0.5
				c-2.8-2.1-6-6.7-4.5-9.9c0.5-1.2,2.1-3,6.3-2.2c1.2,0.2,2.5,0.3,3.8,0.3c-7.3-4.2-15.7-6.7-24.6-7.1c-0.9,1.5-2.5,2.5-4.4,2.5
				c-2.8,0-5.1-2.2-5.1-5c0-0.3,0-0.7,0.1-1c-19.1,2.5-35.3,14.1-43.6,30.2c0.8-0.4,1.7-0.6,2.6-0.6c3.4,0,6.2,2.7,6.2,6.1
				c0,2.6-1.6,4.7-3.9,5.6c0,0.2,0.1,0.3,0.1,0.5v8.3h60.2c1.3,0,2.3,1,2.3,2.2c0,1.2-1,2.2-2.3,2.2h-62.5c-1.3,0-2.3-1-2.3-2.2
				V90.9c0-0.1,0-0.3,0-0.4c-1.7-0.6-3.1-2-3.7-3.6c-1.9,5.6-2.9,11.5-2.9,17.7c0,1.7,0.1,3.3,0.2,5c1-2.1,3.1-3.5,5.6-3.5
				c2.5,0,4.7,1.5,5.7,3.6h61c1.3,0,2.3,1,2.3,2.2c0,1.2-1,2.2-2.3,2.2h-60.9c-0.9,2.4-3.2,4.1-5.9,4.1c-1.9,0-3.5-0.8-4.7-2.1
				C241,139.1,260.4,156.9,284.6,160z M300.7,58.4c0-1.2,1-2.2,2.3-2.2c1.3,0,2.3,1,2.3,2.2v7.3c0,1.2-1,2.2-2.3,2.2
				c-1.3,0-2.3-1-2.3-2.2V58.4z M294.2,58.4c0-1.2,1-2.2,2.3-2.2c1.3,0,2.3,1,2.3,2.2V69c0,1.2-1,2.2-2.3,2.2c-1.3,0-2.3-1-2.3-2.2
				V58.4z M289.7,77c-1.3,0-2.3-1-2.3-2.2V58.4c0-1.2,1-2.2,2.3-2.2s2.3,1,2.3,2.2v16.4C292,76,291,77,289.7,77z M300.1,91.1
				c0,1.2-1,2.2-2.3,2.2h-27.5c-1.3,0-2.3-1-2.3-2.2V65.3c-2.3-0.9-4-3.1-4-5.7c0-3.4,2.8-6.1,6.2-6.1s6.2,2.7,6.2,6.1
				c0,2.5-1.6,4.7-3.8,5.6v23.6h25.2C299.1,88.9,300.1,89.9,300.1,91.1z M304.7,142h-10.8c-1.3,0-2.3-1-2.3-2.2c0-1.2,1-2.2,2.3-2.2
				h10.8c1.3,0,2.3,1,2.3,2.2C307,141,306,142,304.7,142z M292.2,151.7c0-1.2,1-2.2,2.3-2.2h9.1c1.3,0,2.3,1,2.3,2.2
				c0,1.2-1,2.2-2.3,2.2h-9.1C293.3,153.9,292.2,152.9,292.2,151.7z M286.2,145.7c0-1.2,1-2.2,2.3-2.2h9.1c1.3,0,2.3,1,2.3,2.2
				c0,1.2-1,2.2-2.3,2.2h-9.1C287.2,148,286.2,147,286.2,145.7z M253.2,142.8c-3.4,0-6.2-2.7-6.2-6.1c0-3.4,2.8-6.1,6.2-6.1
				c2.8,0,5.1,1.8,5.9,4.2h5.9v-12.3c0-1.2,1-2.2,2.3-2.2h31.1c1.3,0,2.3,1,2.3,2.2c0,1.2-1,2.2-2.3,2.2h-28.8v12.3
				c0,1.2-1,2.2-2.3,2.2h-8.5C257.8,141.4,255.7,142.8,253.2,142.8z"/>
			
				<radialGradient id="SVGID_12_" cx="-237.9676" cy="104.1789" r="56.0185" gradientTransform="matrix(-1 0 0 0.9767 52.0648 2.7433)" gradientUnits="userSpaceOnUse">
				<stop  offset="0" style="stop-color:#FF0000"/>
				<stop  offset="1" style="stop-color:#C1272D"/>
			</radialGradient>
			<path class="st12" d="M253.2,134.6c1.3,0,2.3,1,2.3,2.2c0,1.2-1,2.2-2.3,2.2c-1.3,0-2.3-1-2.3-2.2
				C250.9,135.6,251.9,134.6,253.2,134.6z"/>
		</g>
	</g>
	<path class="st52" d="M226.5,104.2c0-34.4,27.9-62.3,62.3-62.3c2.8,0,5.5,0.2,8.2,0.5c-0.5-2.5-2.7-4.4-5.4-4.4
		c-2.3,0-4.2,1.4-5,3.3c-15.9,0.7-30.8,7.3-42.1,18.7c-11.8,11.9-18.3,27.7-18.3,44.5c0,16.8,6.5,32.6,18.3,44.5
		c2,2,4.1,3.8,6.2,5.5c0.3,0.3,0.6,0.6,0.9,0.8c0.2,0.1,0.3,0.2,0.5,0.3c10.1,7.4,22,11.5,34.6,12c1,1.7,2.7,2.8,4.8,2.8
		c2.7,0,4.9-1.9,5.4-4.4c-2.7,0.4-5.4,0.5-8.2,0.5C254.3,166.5,226.5,138.6,226.5,104.2z"/>
</g>
</svg>
